Coordinates
version=1
nRows=17
nColumns=24
inDegrees=yes

Units are S.I. units (second, meters, Newtons, ...)
Angles are in degrees.

endheader
time	pelvis_tilt	pelvis_list	pelvis_rotation	pelvis_tx	pelvis_ty	pelvis_tz	hip_flexion_r	hip_adduction_r	hip_rotation_r	knee_angle_r	ankle_angle_r	subtalar_angle_r	mtp_angle_r	hip_flexion_l	hip_adduction_l	hip_rotation_l	knee_angle_l	ankle_angle_l	subtalar_angle_l	mtp_angle_l	lumbar_extension	lumbar_bending	lumbar_rotation
      3.74500000	     -9.15975107	    -11.07919057	     -0.02369971	     -1.45167245	     -0.02806198	     -0.23793045	     15.90453116	     15.50556304	      2.79560409	    -20.30171092	      5.84022490	     -2.28754317	      8.59409497	     26.70955506	    -16.19437891	     -3.26932414	    -66.68168439	     -9.91520033	     -0.79362956	     28.03076235	      8.07905472	     10.05824228	     -8.66040263
      3.75000000	     -8.95976321	    -10.83262947	     -0.02476853	     -1.44530060	     -0.02691656	     -0.23762777	     14.81431104	     15.34830597	      3.37290844	    -19.62822723	      5.86336578	     -2.66789299	      8.06470505	     27.25946829	    -15.89386715	     -3.40495001	    -66.12163171	     -9.27717612	     -0.75080415	     27.93759256	      7.87692288	      9.79522087	     -8.46396847
      3.75500000	     -8.81450977	    -10.56726008	     -0.01874472	     -1.43895333	     -0.02583793	     -0.23735321	     13.80384117	     15.14734720	      3.82902000	    -18.97288525	      5.86930577	     -2.98701677	      7.54673416	     27.84716028	    -15.55241960	     -3.52762094	    -65.47401896	     -8.67431986	     -0.66509266	     27.81794659	      7.73923877	      9.50927235	     -8.29235333
      3.76000000	     -8.72176649	    -10.27978822	     -0.00395326	     -1.43264909	     -0.02482792	     -0.23714998	     12.88210268	     14.89303648	      4.12575553	    -18.34660720	      5.84118363	     -3.22198088	      7.16435575	     28.47037570	    -15.16507244	     -3.64444931	    -64.73670405	     -8.13906135	     -0.58030271	     27.71711078	      7.66011640	      9.20744203	     -8.12698347
      3.76500000	     -8.57185310	    -10.03431704	      0.00616002	     -1.42633801	     -0.02385333	     -0.23690987	     11.87479651	     14.68984041	      4.50886910	    -17.68146117	      5.80257983	     -3.50462871	      6.73521051	     29.00824997	    -14.83271016	     -3.76983909	    -63.93911253	     -7.58102972	     -0.47421512	     27.54449070	      7.51755650	      8.93930807	     -7.95326890
      3.77000000	     -8.40656349	     -9.83739717	      0.01145249	     -1.42004475	     -0.02297391	     -0.23673574	     10.84488329	     14.52906439	      4.91413788	    -17.00268322	      5.77353940	     -3.78659942	      6.27062554	     29.52006216	    -14.55085484	     -3.89933149	    -63.10033007	     -7.01445738	     -0.37300164	     27.27842383	      7.35662272	      8.74747273	     -7.77687786
      3.77500000	     -8.28560124	     -9.63059602	      0.01432418	     -1.41375804	     -0.02216646	     -0.23656914	      9.88601886	     14.34087142	      5.20266772	    -16.35064204	      5.72455476	     -3.98978871	      5.87655923	     30.05052218	    -14.24853391	     -4.02437488	    -62.17943038	     -6.50539468	     -0.27678430	     26.98503357	      7.24883074	      8.53874479	     -7.61057205
      3.78000000	     -8.16793623	     -9.43509459	      0.01400960	     -1.40749078	     -0.02142579	     -0.23643306	      8.94270078	     14.15338826	      5.43979943	    -15.70865731	      5.65949090	     -4.15098878	      5.55304125	     30.56024455	    -13.95181953	     -4.14638294	    -61.19122737	     -6.02541610	     -0.19848188	     26.65881991	      7.14286140	      8.34897450	     -7.44015763
      3.78500000	     -8.05491979	     -9.25379293	      0.00911055	     -1.40123060	     -0.02076400	     -0.23631364	      8.01716414	     13.97202243	      5.63729977	    -15.08266371	      5.58740230	     -4.27689594	      5.29577185	     31.04976283	    -13.66756333	     -4.26665280	    -60.14077479	     -5.56345780	     -0.13751045	     26.28991111	      7.04169225	      8.17709183	     -7.26370834
      3.79000000	     -7.95386302	     -9.07566969	     -0.00324009	     -1.39499137	     -0.02015718	     -0.23622185	      7.12512348	     13.78464873	      5.77385419	    -14.48397292	      5.49000973	     -4.36148012	      5.09495833	     31.52379462	    -13.38808873	     -4.39876534	    -59.02075977	     -5.13944764	     -0.07763098	     25.88389936	      6.95105366	      8.01780702	     -7.08351463
      3.79500000	     -7.83432428	     -8.91780583	     -0.02095808	     -1.38873846	     -0.01963084	     -0.23615259	      6.21470023	     13.61341326	      5.93013942	    -13.89182978	      5.41524806	     -4.42283761	      4.94296960	     31.95001517	    -13.12693929	     -4.52389868	    -57.85114504	     -4.68024973	     -0.02858809	     25.37615419	      6.84510547	      7.88067983	     -6.89014967
      3.80000000	     -7.89459936	     -8.78446284	     -0.03915979	     -1.38259060	     -0.01938384	     -0.23613474	      5.55946730	     13.45360441	      5.98627672	    -13.39010115	      5.38934156	     -4.35396413	      4.88790454	     32.57661042	    -12.86050885	     -4.56027467	    -56.62099793	     -4.33315165	     -0.01686158	     25.19030542	      6.92757297	      7.77501295	     -6.75323527
      3.80500000	     -7.64390519	     -8.59760463	     -0.08227166	     -1.37631789	     -0.01879970	     -0.23603941	      4.52530952	     13.24755238	      6.11780910	    -12.83240296	      5.28780420	     -4.38987552	      4.80327063	     32.77026830	    -12.61155146	     -4.79988919	    -55.31806206	     -3.85442158	      0.03786215	     24.36569132	      6.66766291	      7.61146675	     -6.48791463
      3.81000000	     -7.72055053	     -8.46929019	     -0.09894801	     -1.37018162	     -0.01869367	     -0.23603203	      3.92479959	     13.09123674	      6.14885413	    -12.39476528	      5.26604582	     -4.32243715	      4.77081077	     33.35866036	    -12.35199912	     -4.82905574	    -53.96976052	     -3.52016803	      0.11204937	     24.10621432	      6.77031913	      7.51306717	     -6.32684872
      3.81500000	     -7.51224557	     -8.26862673	     -0.18734989	     -1.36397120	     -0.01825180	     -0.23596274	      2.99501815	     12.85867026	      6.26087359	    -11.94097979	      5.19317406	     -4.24867080	      4.77532268	     33.52934907	    -12.11102834	     -5.12103159	    -52.55408117	     -3.00859442	      0.24656672	     23.10416854	      6.54111317	      7.35002338	     -6.05639285
      3.82000000	     -7.46479930	     -8.11816101	     -0.24012829	     -1.35786811	     -0.01810972	     -0.23601550	      2.29453034	     12.66960032	      6.32324436	    -11.56760400	      5.15813900	     -4.15210972	      4.83346021	     33.89736660	    -11.85751694	     -5.24010635	    -51.12153544	     -2.46482799	      0.51347711	     22.17207874	      6.48412062	      7.25328529	     -5.80647451
      3.82500000	     -7.56355636	     -7.96603702	     -0.28039278	     -1.35181284	     -0.01816279	     -0.23602135	      1.80238530	     12.48817868	      6.33212730	    -11.27747210	      5.14627166	     -4.07718523	      4.82945491	     34.40247344	    -11.59300256	     -5.30242306	    -49.57307413	     -2.17696684	      0.67492779	     21.88826580	      6.59105718	      7.13368896	     -5.64745200
